<svg width="260" height="326" viewBox="0 0 260 326" fill="none" xmlns="http://www.w3.org/2000/svg">
<mask id="path-1-inside-1" fill="white">
<path fill-rule="evenodd" clip-rule="evenodd" d="M125.526 7.15172C123.86 7.17037 122.201 7.22301 120.551 7.30896C114.783 4.08017 107.419 2.14406 99.3967 2.14406C81.5785 2.14406 67.0093 11.695 65.9575 23.7469C65.0063 24.3087 64.0636 24.8833 63.1295 25.4704C61.5845 25.2554 60.0042 25.1441 58.3967 25.1441C40.4475 25.1441 25.8967 39.0232 25.8967 56.1441C25.8967 57.9902 26.0659 59.7987 26.3903 61.5562C26.0427 62.0878 25.6991 62.6224 25.3597 63.1599C15.1146 63.766 6.89673 81.6594 6.89673 103.644C6.89673 107.355 7.13085 110.949 7.56933 114.363C7.12472 118.563 6.89673 122.827 6.89673 127.144V137.18C3.8175 143.194 1.89673 151.707 1.89673 161.144C1.89673 170.581 3.8175 179.094 6.89673 185.108V193.893C3.18102 199.016 0.896729 205.976 0.896729 213.644C0.896729 221.315 3.18287 228.278 6.90123 233.401C6.89823 233.648 6.89673 233.896 6.89673 234.144C6.89673 264.309 29.1573 289.275 58.1473 293.511C58.3974 293.686 58.6482 293.86 58.8997 294.033C59.1611 311.251 76.7444 325.144 98.3967 325.144C108.838 325.144 118.334 321.913 125.397 316.636C132.46 321.913 141.955 325.144 152.397 325.144C173.172 325.144 190.201 312.354 191.778 296.109C193.085 295.268 194.374 294.401 195.646 293.511C222.741 289.552 243.958 267.484 246.616 239.987C254.412 235.708 259.897 225.525 259.897 213.644C259.897 204.195 256.427 195.819 251.085 190.634C256.312 185.204 259.897 174.038 259.897 161.144C259.897 145.034 254.299 131.619 246.897 128.723V128.505C249.404 121.643 250.897 113.015 250.897 103.644C250.897 81.2765 242.39 63.1441 231.897 63.1441C231.615 63.1441 231.334 63.1572 231.055 63.1831C231.606 60.9216 231.897 58.5653 231.897 56.1441C231.897 39.0232 217.346 25.1441 199.397 25.1441C196.7 25.1441 194.08 25.4574 191.574 26.048C187.423 23.3872 183.098 20.9749 178.62 18.8323C174.624 9.19853 161.71 2.14406 146.397 2.14406C138.505 2.14406 131.251 4.01742 125.526 7.15172Z"/>
</mask>
<path fill-rule="evenodd" clip-rule="evenodd" d="M125.526 7.15172C123.86 7.17037 122.201 7.22301 120.551 7.30896C114.783 4.08017 107.419 2.14406 99.3967 2.14406C81.5785 2.14406 67.0093 11.695 65.9575 23.7469C65.0063 24.3087 64.0636 24.8833 63.1295 25.4704C61.5845 25.2554 60.0042 25.1441 58.3967 25.1441C40.4475 25.1441 25.8967 39.0232 25.8967 56.1441C25.8967 57.9902 26.0659 59.7987 26.3903 61.5562C26.0427 62.0878 25.6991 62.6224 25.3597 63.1599C15.1146 63.766 6.89673 81.6594 6.89673 103.644C6.89673 107.355 7.13085 110.949 7.56933 114.363C7.12472 118.563 6.89673 122.827 6.89673 127.144V137.18C3.8175 143.194 1.89673 151.707 1.89673 161.144C1.89673 170.581 3.8175 179.094 6.89673 185.108V193.893C3.18102 199.016 0.896729 205.976 0.896729 213.644C0.896729 221.315 3.18287 228.278 6.90123 233.401C6.89823 233.648 6.89673 233.896 6.89673 234.144C6.89673 264.309 29.1573 289.275 58.1473 293.511C58.3974 293.686 58.6482 293.86 58.8997 294.033C59.1611 311.251 76.7444 325.144 98.3967 325.144C108.838 325.144 118.334 321.913 125.397 316.636C132.46 321.913 141.955 325.144 152.397 325.144C173.172 325.144 190.201 312.354 191.778 296.109C193.085 295.268 194.374 294.401 195.646 293.511C222.741 289.552 243.958 267.484 246.616 239.987C254.412 235.708 259.897 225.525 259.897 213.644C259.897 204.195 256.427 195.819 251.085 190.634C256.312 185.204 259.897 174.038 259.897 161.144C259.897 145.034 254.299 131.619 246.897 128.723V128.505C249.404 121.643 250.897 113.015 250.897 103.644C250.897 81.2765 242.39 63.1441 231.897 63.1441C231.615 63.1441 231.334 63.1572 231.055 63.1831C231.606 60.9216 231.897 58.5653 231.897 56.1441C231.897 39.0232 217.346 25.1441 199.397 25.1441C196.7 25.1441 194.08 25.4574 191.574 26.048C187.423 23.3872 183.098 20.9749 178.62 18.8323C174.624 9.19853 161.71 2.14406 146.397 2.14406C138.505 2.14406 131.251 4.01742 125.526 7.15172Z" fill="#FD9999"/>
<path d="M120.551 7.30896L117.62 12.5445L119.133 13.391L120.863 13.3008L120.551 7.30896ZM125.526 7.15172L125.594 13.1513L127.093 13.1346L128.408 12.4146L125.526 7.15172ZM65.9575 23.7469L69.0089 28.9131L71.6665 27.3434L71.9348 24.2686L65.9575 23.7469ZM63.1295 25.4704L62.3025 31.4131L64.4697 31.7147L66.3222 30.5504L63.1295 25.4704ZM26.3903 61.5562L31.412 64.8399L32.7267 62.8293L32.2906 60.467L26.3903 61.5562ZM25.3597 63.1599L25.714 69.1495L28.7884 68.9676L30.4329 66.3635L25.3597 63.1599ZM7.56933 114.363L13.536 114.995L13.61 114.296L13.5205 113.599L7.56933 114.363ZM6.89673 137.18L12.2375 139.914L12.8967 138.626V137.18H6.89673ZM6.89673 185.108H12.8967V183.662L12.2375 182.374L6.89673 185.108ZM6.89673 193.893L11.7536 197.416L12.8967 195.84V193.893H6.89673ZM6.90123 233.401L12.9008 233.474L12.9249 231.486L11.7571 229.877L6.90123 233.401ZM58.1473 293.511L61.5886 288.596L60.4229 287.779L59.0147 287.574L58.1473 293.511ZM58.8997 294.033L64.899 293.942L64.852 290.848L62.3035 289.092L58.8997 294.033ZM125.397 316.636L128.988 311.83L125.397 309.147L121.806 311.83L125.397 316.636ZM191.778 296.109L188.529 291.065L186.086 292.638L185.806 295.53L191.778 296.109ZM195.646 293.511L194.779 287.574L193.371 287.779L192.205 288.596L195.646 293.511ZM246.616 239.987L243.729 234.728L240.949 236.253L240.644 239.41L246.616 239.987ZM251.085 190.634L246.762 186.473L242.619 190.778L246.906 194.939L251.085 190.634ZM246.897 128.723H240.897V132.819L244.711 134.311L246.897 128.723ZM246.897 128.505L241.261 126.447L240.897 127.444V128.505H246.897ZM231.055 63.1831L225.225 61.764L223.237 69.9352L231.61 69.1573L231.055 63.1831ZM191.574 26.048L188.336 31.0991L190.476 32.4712L192.95 31.888L191.574 26.048ZM178.62 18.8323L173.077 21.131L173.958 23.2533L176.03 24.2448L178.62 18.8323ZM120.863 13.3008C122.432 13.2191 124.008 13.1691 125.594 13.1513L125.459 1.1521C123.711 1.17166 121.97 1.22688 120.239 1.31709L120.863 13.3008ZM99.3967 8.14406C106.487 8.14406 112.826 9.86092 117.62 12.5445L123.482 2.07343C116.74 -1.70057 108.352 -3.85594 99.3967 -3.85594V8.14406ZM71.9348 24.2686C72.2537 20.6149 74.6948 16.6784 79.6558 13.4591C84.5756 10.2666 91.51 8.14406 99.3967 8.14406V-3.85594C89.4652 -3.85594 80.2059 -1.20299 73.1236 3.39287C66.0825 7.96201 60.7132 14.827 59.9802 23.2253L71.9348 24.2686ZM66.3222 30.5504C67.2096 29.9926 68.1053 29.4468 69.0089 28.9131L62.9062 18.5808C61.9074 19.1707 60.9175 19.774 59.9367 20.3904L66.3222 30.5504ZM58.3967 31.1441C59.727 31.1441 61.0309 31.2362 62.3025 31.4131L63.9565 19.5277C62.1381 19.2746 60.2815 19.1441 58.3967 19.1441V31.1441ZM31.8967 56.1441C31.8967 42.601 43.4908 31.1441 58.3967 31.1441V19.1441C37.4041 19.1441 19.8967 35.4455 19.8967 56.1441H31.8967ZM32.2906 60.467C32.0322 59.0667 31.8967 57.6228 31.8967 56.1441H19.8967C19.8967 58.3577 20.0997 60.5307 20.49 62.6453L32.2906 60.467ZM30.4329 66.3635C30.7553 65.8529 31.0817 65.345 31.412 64.8399L21.3686 58.2725C21.0036 58.8307 20.6429 59.392 20.2865 59.9563L30.4329 66.3635ZM12.8967 103.644C12.8967 93.3229 14.8372 84.2378 17.7434 77.8791C20.8586 71.0631 24.0984 69.245 25.714 69.1495L25.0054 57.1704C16.3759 57.6809 10.3843 65.1126 6.82924 72.8909C3.0652 81.1266 0.896729 91.9805 0.896729 103.644H12.8967ZM13.5205 113.599C13.1151 110.443 12.8967 107.104 12.8967 103.644H0.896729C0.896729 107.606 1.14657 111.455 1.61821 115.127L13.5205 113.599ZM12.8967 127.144C12.8967 123.038 13.1136 118.985 13.536 114.995L1.60268 113.731C1.13589 118.14 0.896729 122.615 0.896729 127.144H12.8967ZM12.8967 137.18V127.144H0.896729V137.18H12.8967ZM7.89673 161.144C7.89673 152.426 9.68586 144.898 12.2375 139.914L1.55595 134.446C-2.05087 141.491 -4.10327 150.987 -4.10327 161.144H7.89673ZM12.2375 182.374C9.68586 177.39 7.89673 169.862 7.89673 161.144H-4.10327C-4.10327 171.301 -2.05087 180.797 1.55595 187.842L12.2375 182.374ZM12.8967 193.893V185.108H0.896729V193.893H12.8967ZM6.89673 213.644C6.89673 207.13 8.84396 201.428 11.7536 197.416L2.03987 190.37C-2.48193 196.604 -5.10327 204.823 -5.10327 213.644H6.89673ZM11.7571 229.877C8.84556 225.865 6.89673 220.161 6.89673 213.644H-5.10327C-5.10327 222.469 -2.47983 230.69 2.04538 236.925L11.7571 229.877ZM12.8967 234.144C12.8967 233.92 12.8981 233.697 12.9008 233.474L0.901676 233.328C0.898381 233.6 0.896729 233.872 0.896729 234.144H12.8967ZM59.0147 287.574C32.9292 283.763 12.8967 261.287 12.8967 234.144H0.896729C0.896729 267.331 25.3854 294.788 57.2799 299.448L59.0147 287.574ZM62.3035 289.092C62.0647 288.928 61.8264 288.762 61.5886 288.596L54.706 298.426C54.9684 298.609 55.2317 298.792 55.4958 298.974L62.3035 289.092ZM98.3967 319.144C78.719 319.144 65.0929 306.717 64.899 293.942L52.9004 294.124C53.2292 315.785 74.7698 331.144 98.3967 331.144V319.144ZM121.806 311.83C115.844 316.284 107.626 319.144 98.3967 319.144V331.144C110.051 331.144 120.824 327.542 128.988 321.443L121.806 311.83ZM152.397 319.144C143.167 319.144 134.95 316.284 128.988 311.83L121.806 321.443C129.969 327.542 140.743 331.144 152.397 331.144V319.144ZM185.806 295.53C184.625 307.695 171.209 319.144 152.397 319.144V331.144C175.135 331.144 195.777 317.013 197.749 296.689L185.806 295.53ZM192.205 288.596C190.996 289.442 189.771 290.265 188.529 291.065L195.026 301.154C196.398 300.27 197.753 299.36 199.088 298.426L192.205 288.596ZM240.644 239.41C238.253 264.145 219.155 284.012 194.779 287.574L196.514 299.448C226.328 295.092 249.664 270.823 252.588 240.565L240.644 239.41ZM253.897 213.644C253.897 223.919 249.143 231.756 243.729 234.728L249.503 245.247C259.681 239.661 265.897 227.131 265.897 213.644H253.897ZM246.906 194.939C250.92 198.836 253.897 205.573 253.897 213.644H265.897C265.897 202.816 261.934 192.803 255.264 186.329L246.906 194.939ZM253.897 161.144C253.897 173.318 250.448 182.644 246.762 186.473L255.408 194.795C262.175 187.764 265.897 174.757 265.897 161.144H253.897ZM244.711 134.311C246.121 134.863 248.516 137.066 250.613 142.234C252.602 147.137 253.897 153.734 253.897 161.144H265.897C265.897 152.444 264.392 144.278 261.732 137.722C259.18 131.432 255.075 125.48 249.083 123.136L244.711 134.311ZM240.897 128.505V128.723H252.897V128.505H240.897ZM244.897 103.644C244.897 112.418 243.493 120.336 241.261 126.447L252.532 130.564C255.314 122.95 256.897 113.612 256.897 103.644H244.897ZM231.897 69.1441C233.444 69.1441 236.689 70.7111 239.9 77.5546C242.887 83.9214 244.897 93.1389 244.897 103.644H256.897C256.897 91.7817 254.653 80.7492 250.764 72.4579C247.098 64.6433 240.842 57.1441 231.897 57.1441V69.1441ZM231.61 69.1573C231.705 69.1485 231.801 69.1441 231.897 69.1441V57.1441C231.429 57.1441 230.963 57.1658 230.5 57.2088L231.61 69.1573ZM225.897 56.1441C225.897 58.0826 225.664 59.9626 225.225 61.764L236.885 64.6021C237.547 61.8806 237.897 59.048 237.897 56.1441H225.897ZM199.397 31.1441C214.303 31.1441 225.897 42.601 225.897 56.1441H237.897C237.897 35.4455 220.389 19.1441 199.397 19.1441V31.1441ZM192.95 31.888C195.007 31.4031 197.166 31.1441 199.397 31.1441V19.1441C196.234 19.1441 193.152 19.5117 190.197 20.208L192.95 31.888ZM176.03 24.2448C180.284 26.2798 184.393 28.5712 188.336 31.0991L194.812 20.9969C190.454 18.2031 185.913 15.67 181.209 13.4198L176.03 24.2448ZM146.397 8.14406C160.367 8.14406 170.366 14.5927 173.077 21.131L184.162 16.5337C178.882 3.80433 163.053 -3.85594 146.397 -3.85594V8.14406ZM128.408 12.4146C133.175 9.80473 139.424 8.14406 146.397 8.14406V-3.85594C137.587 -3.85594 129.328 -1.7699 122.645 1.88887L128.408 12.4146Z" fill="black" mask="url(#path-1-inside-1)"/>
<line x1="124.593" y1="12.5057" x2="125.897" y2="319.505" stroke="black" stroke-width="6"/>
<path d="M214.593 163.518C214.593 211.004 175.876 249.518 128.093 249.518C80.3094 249.518 41.5927 211.004 41.5927 163.518C41.5927 116.033 80.3094 77.5185 128.093 77.5185C175.876 77.5185 214.593 116.033 214.593 163.518Z" fill="#7900D8" stroke="black" stroke-width="4"/>
<path d="M71.0927 141.018C111.093 262.018 201.593 117.018 99.5928 111.518C353.093 97.0185 65.0927 393.518 71.0927 141.018Z" fill="#DE4EC7" stroke="#F4FFF7" stroke-width="4"/>
<path d="M185.093 193.018C185.093 205.11 174.855 215.018 162.093 215.018C149.331 215.018 139.093 205.11 139.093 193.018C139.093 180.927 149.331 171.018 162.093 171.018C174.855 171.018 185.093 180.927 185.093 193.018Z" fill="black" stroke="white" stroke-width="3"/>
<mask id="path-7-inside-2" fill="white">
<path fill-rule="evenodd" clip-rule="evenodd" d="M82.9528 102.995C88.0844 103.127 92.1283 107.753 91.9853 113.329L91.4672 133.518L72.8901 133.042C72.8882 133.042 72.8862 133.042 72.8842 133.042C67.7527 132.91 63.7087 128.284 63.8518 122.708C63.9948 117.133 68.2707 112.72 73.4023 112.852C73.5453 107.277 77.8213 102.864 82.9528 102.995Z"/>
</mask>
<path fill-rule="evenodd" clip-rule="evenodd" d="M82.9528 102.995C88.0844 103.127 92.1283 107.753 91.9853 113.329L91.4672 133.518L72.8901 133.042C72.8882 133.042 72.8862 133.042 72.8842 133.042C67.7527 132.91 63.7087 128.284 63.8518 122.708C63.9948 117.133 68.2707 112.72 73.4023 112.852C73.5453 107.277 77.8213 102.864 82.9528 102.995Z" fill="#FF0000"/>
<path d="M91.9853 113.329L94.9843 113.406L91.9853 113.329ZM82.9528 102.995L82.8759 105.994L82.9528 102.995ZM91.4672 133.518L91.3903 136.517L94.3893 136.594L94.4663 133.595L91.4672 133.518ZM72.8901 133.042L72.9671 130.043L72.966 130.043L72.8901 133.042ZM72.8842 133.042L72.8073 136.041L72.8084 136.041L72.8842 133.042ZM63.8518 122.708L66.8508 122.785L63.8518 122.708ZM73.4023 112.852L73.3253 115.851L76.3243 115.928L76.4013 112.929L73.4023 112.852ZM94.9843 113.406C95.1637 106.413 90.0469 100.176 83.0298 99.9963L82.8759 105.994C86.1218 106.078 89.093 109.094 88.9863 113.252L94.9843 113.406ZM94.4663 133.595L94.9843 113.406L88.9863 113.252L88.4682 133.442L94.4663 133.595ZM72.8132 136.041L91.3903 136.517L91.5442 130.519L72.9671 130.043L72.8132 136.041ZM72.966 130.043C72.966 130.043 72.9659 130.043 72.9656 130.043C72.9654 130.043 72.9651 130.043 72.9645 130.043C72.9637 130.043 72.9619 130.043 72.9601 130.043L72.8084 136.041C72.8084 136.041 72.8085 136.041 72.8088 136.041C72.809 136.041 72.8093 136.041 72.8098 136.041C72.8107 136.041 72.8124 136.041 72.8143 136.041L72.966 130.043ZM72.9612 130.043C69.7153 129.959 66.7441 126.943 66.8508 122.785L60.8528 122.631C60.6733 129.624 65.7901 135.861 72.8073 136.041L72.9612 130.043ZM66.8508 122.785C66.9575 118.627 70.0794 115.768 73.3253 115.851L73.4792 109.853C66.4621 109.673 61.0322 115.639 60.8528 122.631L66.8508 122.785ZM83.0298 99.9963C76.0126 99.8162 70.5827 105.782 70.4033 112.775L76.4013 112.929C76.508 108.771 79.6299 105.911 82.8759 105.994L83.0298 99.9963Z" fill="#FFF3F3" mask="url(#path-7-inside-2)"/>
<path d="M202.662 208.24C212.685 208.24 222.374 205.679 232.119 205.679C235.375 205.679 238.28 204.165 240.657 202.263C242.144 201.074 246.387 198.488 247.061 197.14" stroke="black" stroke-width="6" stroke-linecap="round" stroke-linejoin="round"/>
<path d="M93.6753 21C93.2179 23.4586 94.0357 31.8115 91.7779 33.6177C89.0803 35.7758 82.5996 35.3593 79.2076 36.8433C72.3994 39.8219 74.0372 49.0997 74.0372 55.1532C74.0372 61.7087 71.15 64.2256 66.163 67.4863C63.1 69.4891 57.8498 71.1061 56.5337 74.7913C55.696 77.1368 56.1068 80.0054 56.1068 82.4757" stroke="black" stroke-width="6" stroke-linecap="round" stroke-linejoin="round"/>
<path d="M156.859 39.7843C156.121 41.6061 152.461 46.9371 155.578 48.3226C160.383 50.458 165.217 52.2457 170.235 54.1096C177.994 56.9915 181.068 64.7039 182.853 72.6093C183.472 75.3498 184.018 77.9853 184.181 80.7681C184.299 82.7732 195.061 82.4758 196.894 82.4758C199.344 82.4758 201.984 82.6954 203.155 85.0373C204.098 86.9233 204.552 90.9536 206.381 91.8679" stroke="black" stroke-width="6" stroke-linecap="round" stroke-linejoin="round"/>
<path d="M8 193C10.3895 194.016 12.5717 195.35 14.8306 196.605C16.4306 197.494 18.0189 197.712 19.5267 198.55C22.243 200.059 27.1131 200.513 30.1996 200.684C33.457 200.865 36.5122 202.392 40.0186 202.392C42.7985 202.392 45.9036 203.876 48.13 202.392" stroke="black" stroke-width="6" stroke-linecap="round" stroke-linejoin="round"/>
<path d="M10 231.042C14.7134 230.358 24.413 227.225 29.2112 229.809C33.235 231.976 39.0837 233.479 43.6788 233.604C46.9276 233.691 51.3012 234.452 54.0197 232.228C55.5148 231.005 57.0137 229.308 58.6683 228.481" stroke="black" stroke-width="6" stroke-linecap="round" stroke-linejoin="round"/>
<path d="M91.1138 304.472C87.2352 299.25 83.4431 292.428 88.5523 286.589C92.8575 281.668 98.7668 281.205 103.494 277.528C107.681 274.272 109.044 273.884 109.044 268.611C109.044 266.369 105.941 262.863 106.483 261.78" stroke="black" stroke-width="6" stroke-linecap="round" stroke-linejoin="round"/>
<path d="M141.49 259.219C151.544 267.073 143.673 282.769 147.277 293.182C148.61 297.032 152.189 298.133 155.531 299.349C157.591 300.098 165.587 301.531 166.251 300.202" stroke="black" stroke-width="6" stroke-linecap="round" stroke-linejoin="round"/>
<path d="M169.666 275.441C169.666 270.688 168.724 264.636 172.228 260.926C175.737 257.211 180.66 253.792 185.889 253.242C190.481 252.758 195.628 248.772 198.886 245.747C201.145 243.65 203.447 241.512 205.527 239.201C206.751 237.841 206.607 235.198 208.089 234.457" stroke="black" stroke-width="6" stroke-linecap="round" stroke-linejoin="round"/>
<path d="M67.2066 278.857C63.8385 275.386 55.4323 266.451 60.3759 260.926C63.7927 257.107 69.2305 252.609 71.4757 248.119" stroke="black" stroke-width="6" stroke-linecap="round" stroke-linejoin="round"/>
<path d="M28.7842 165.297C27.5993 159.076 27.0358 149.846 29.8278 143.952C30.9663 141.548 30.7457 138.644 31.5355 136.077C32.625 132.536 33.9072 129.344 33.9072 125.594C33.9072 117.309 27.7391 107.811 30.4919 99.5524" stroke="black" stroke-width="6" stroke-linecap="round" stroke-linejoin="round"/>
<path d="M231.142 179.812C229.389 171.436 229.057 162.961 227.774 154.624C227.414 152.282 228.58 149.379 228.58 146.892C228.58 144.347 228.58 141.801 228.58 139.255C228.58 135.635 228.58 132.014 228.58 128.393C228.58 124.191 226.421 119.691 227.727 115.775" stroke="black" stroke-width="6" stroke-linecap="round" stroke-linejoin="round"/>
</svg>
